<svg xmlns="http://www.w3.org/2000/svg" version="1.1" xmlns:xlink="http://www.w3.org/1999/xlink" width="1000" height="1000"><g clip-path="url(#SvgjsClipPath1014)"><rect width="1000" height="1000" fill="#ffffff"></rect><g transform="matrix(1.09375,0,0,1.09375,150,220)"><svg xmlns="http://www.w3.org/2000/svg" version="1.1" xmlns:xlink="http://www.w3.org/1999/xlink" width="640" height="512"><svg xmlns="http://www.w3.org/2000/svg" viewBox="0 0 640 512"><!--!Font Awesome Free 6.7.2 by @fontawesome - https://fontawesome.com License - https://fontawesome.com/license/free Copyright 2025 Fonticons, Inc.--><path d="M96 64c0-17.7 14.3-32 32-32l32 0c17.7 0 32 14.3 32 32l0 160 0 64 0 160c0 17.7-14.3 32-32 32l-32 0c-17.7 0-32-14.3-32-32l0-64-32 0c-17.7 0-32-14.3-32-32l0-64c-17.7 0-32-14.3-32-32s14.3-32 32-32l0-64c0-17.7 14.3-32 32-32l32 0 0-64zm448 0l0 64 32 0c17.7 0 32 14.3 32 32l0 64c17.7 0 32 14.3 32 32s-14.3 32-32 32l0 64c0 17.7-14.3 32-32 32l-32 0 0 64c0 17.7-14.3 32-32 32l-32 0c-17.7 0-32-14.3-32-32l0-160 0-64 0-160c0-17.7 14.3-32 32-32l32 0c17.7 0 32 14.3 32 32zM416 224l0 64-192 0 0-64 192 0z"></path></svg></svg></g></g><defs><clipPath id="SvgjsClipPath1014"><rect width="1000" height="1000" x="0" y="0" rx="350" ry="350"></rect></clipPath></defs></svg>